# xmcd CD database file generated by OrangeCD 6.4
#
# Track frame offsets:
#	150
#	25543
#	41715
#	72516
#	89317
#	110871
#	125208
#	141632
#	161039
#
# Disc length: 2734 seconds
#
# Revision: 0
# Processed by: cddbd v1.5.2PL0 Copyright (c) Steve Scherf et al.
# Submitted via: OrangeCD 6.4
#
DISCID=8a0aac09
DTITLE=Jimi Hendrix - Moonbeams and Fairytales
DYEAR=2008
DGENRE=Blues Rock
TTITLE0=Tune-Up/Intro by Brian Jones/Killing Floor
TTITLE1=Foxy Lady
TTITLE2=Like A Rolling Stone
TTITLE3=Rock Me Baby
TTITLE4=Hey Joe
TTITLE5=Can You See Me
TTITLE6=The Wind Cries Mary
TTITLE7=Purple Haze
TTITLE8=Wild Thing
EXTD=
EXTT0=
EXTT1=
EXTT2=
EXTT3=
EXTT4=
EXTT5=
EXTT6=
EXTT7=
EXTT8=
PLAYORDER=
